<mxfile modified="2022-05-20T01:29:43.428Z" host="app.diagrams.net" agent="5.0 (Windows NT 10.0; Win64; x64) AppleWebKit/537.36 (KHTML, like Gecko) Chrome/101.0.4951.54 Safari/537.36" etag="L4R4zizs9enY61uBLixY" compressed="false" version="18.0.8" type="google">
  <diagram id="M0ApvNSCdlNE9DY_tU8s" name="SEQUENCE VIEW">
    <mxGraphModel grid="1" page="1" gridSize="10" guides="1" tooltips="1" connect="1" arrows="1" fold="1" pageScale="1" pageWidth="827" pageHeight="1169" math="0" shadow="0">
      <root>
        <mxCell id="1WxKv-yZE6tR2X9sKSKa-0" />
        <mxCell id="1WxKv-yZE6tR2X9sKSKa-1" value="Title" parent="1WxKv-yZE6tR2X9sKSKa-0" />
        <mxCell id="jhuG6KZ-VXjsZxgpJFv9-1" value="Sequence View" style="text;html=1;strokeColor=none;fillColor=none;align=center;verticalAlign=middle;whiteSpace=wrap;rounded=0;fontSize=48;opacity=30;" vertex="1" parent="1WxKv-yZE6tR2X9sKSKa-1">
          <mxGeometry x="160" y="200" width="480" height="320" as="geometry" />
        </mxCell>
        <mxCell id="MogdZUHXKiyMgMLu8jOa-0" value="About" parent="1WxKv-yZE6tR2X9sKSKa-0" />
        <UserObject label="" tooltip="ABOUT&#xa;&#xa;Diagrams to show Sequences/Workflows required to manage Core Entities." id="eiTg85NBGL8jX2J6ZrZ2-0">
          <mxCell style="shape=image;html=1;verticalAlign=top;verticalLabelPosition=bottom;labelBackgroundColor=#ffffff;imageAspect=0;aspect=fixed;image=https://cdn1.iconfinder.com/data/icons/hawcons/32/699014-icon-28-information-128.png;shadow=0;dashed=0;fontFamily=Helvetica;fontSize=12;fontColor=#000000;align=center;strokeColor=#000000;fillColor=#505050;dashPattern=1 1;" vertex="1" parent="MogdZUHXKiyMgMLu8jOa-0">
            <mxGeometry x="660" y="380" width="20" height="20" as="geometry" />
          </mxCell>
        </UserObject>
      </root>
    </mxGraphModel>
  </diagram>
</mxfile>
